<?xml version="1.0" encoding="UTF-8"?>
<svg version="1.1" xmlns="http://www.w3.org/2000/svg" width="500" height="500">
<path d="M0 0 C165 0 330 0 500 0 C500 165 500 330 500 500 C335 500 170 500 0 500 C0 335 0 170 0 0 Z " fill="#000000" transform="translate(0,0)"/>
<path d="M0 0 C10.5872384 10.06499794 18.60746087 24.20439676 19.328125 38.97265625 C19.69197161 58.71183195 15.13122873 74.49689481 1.2421875 89.16015625 C-8.23591254 98.3585207 -21.96203334 106.03126609 -35.3984375 106.44921875 C-36.25953125 106.41441406 -37.120625 106.37960937 -38.0078125 106.34375 C-38.0078125 105.02375 -38.0078125 103.70375 -38.0078125 102.34375 C-39.4309375 102.6221875 -39.4309375 102.6221875 -40.8828125 102.90625 C-44.0078125 103.34375 -44.0078125 103.34375 -46.0078125 102.34375 C-46.0078125 103.66375 -46.0078125 104.98375 -46.0078125 106.34375 C-63.30728676 105.90528406 -77.21666592 97.42772307 -89.0078125 85.34375 C-94.11810709 79.22895094 -97.49989406 72.87911605 -100.0078125 65.34375 C-100.306875 64.53808594 -100.6059375 63.73242188 -100.9140625 62.90234375 C-105.94908818 47.63409458 -103.31976439 31.5317738 -96.8203125 17.15625 C-88.10389637 0.97241639 -74.42594712 -8.37273161 -57.609375 -14.53515625 C-37.63323953 -20.00754585 -15.52636814 -12.80774336 0 0 Z " fill="#2090D1" transform="translate(173.0078125,206.65625)"/>
<path d="M0 0 C3.3919275 1.64552617 5.88291043 3.4640477 8.4765625 6.20703125 C10.54857283 5.21948067 12.47651752 4.20706173 14.37890625 2.91796875 C20.84137027 -1.32418613 26.87673901 -1.98434437 34.4765625 -0.79296875 C40.98667857 1.67314263 45.33583961 6.53722058 48.7890625 12.45703125 C50.65312548 19.91328316 49.88365408 25.97613935 46.16015625 32.6953125 C43.07005034 37.3053777 39.34433403 41.24525139 35.4765625 45.20703125 C34.6103125 46.13128906 34.6103125 46.13128906 33.7265625 47.07421875 C29.43124538 51.55539094 24.67147689 55.41083089 19.83203125 59.2890625 C16.6229218 61.61623083 16.6229218 61.61623083 15.20532227 65.0546875 C15.19299561 65.78558594 15.18066895 66.51648438 15.16796875 67.26953125 C15.14283203 68.06617188 15.11769531 68.8628125 15.09179688 69.68359375 C15.05664224 71.36580835 15.02539173 73.04810908 14.99804688 74.73046875 C14.97162109 75.52710938 14.94519531 76.32375 14.91796875 77.14453125 C14.90451416 77.87542969 14.89105957 78.60632813 14.87719727 79.359375 C14.4765625 81.20703125 14.4765625 81.20703125 11.4765625 83.20703125 C6.93602196 82.66649071 6.93602196 82.66649071 5.4765625 81.20703125 C5.52296875 80.08683594 5.569375 78.96664062 5.6171875 77.8125 C6.01017322 68.56546644 6.01017322 68.56546644 1.80078125 60.65625 C-0.92996871 58.02078717 -3.87350088 55.67685193 -6.91552734 53.41162109 C-9.00711045 51.84468045 -10.95032954 50.13514842 -12.8984375 48.39453125 C-13.51074219 47.86085938 -14.12304688 47.3271875 -14.75390625 46.77734375 C-23.63082226 38.89981563 -29.58766759 31.49527904 -30.9609375 19.33203125 C-30.79421422 13.60786522 -27.87782897 8.68787342 -23.99609375 4.59765625 C-17.0431835 -1.41758417 -8.87304767 -2.78827968 0 0 Z " fill="#F9FBFC" transform="translate(121.5234375,226.79296875)"/>
<path d="M0 0 C4.63408124 2.71935635 7.81782338 6.09281675 10 11 C16.18928162 9.98950504 18.66280452 7.65782403 22.51953125 2.77734375 C24.43237512 0.48092169 25.4546735 0.05356669 28.42578125 -0.23828125 C36.23179022 -0.43897702 36.23179022 -0.43897702 40.0625 1.75 C43.49186922 5.73249329 44.71744728 9.22899087 44.546875 14.45703125 C41.73157228 27.54818888 24.35853378 39.74902635 14 47 C8.67759919 44.58847743 4.46620743 40.70320292 0 37 C-0.78246094 36.36707031 -1.56492187 35.73414063 -2.37109375 35.08203125 C-9.49449018 29.09442766 -17.40164079 21.34260764 -18.3125 11.6875 C-17.94227165 7.31880542 -16.74219139 5.36897799 -14 2 C-9.50413803 -0.99724131 -5.25952671 -0.95302051 0 0 Z " fill="#2391D1" transform="translate(118,235)"/>
<path d="M0 0 C4.33125 -0.12375 4.33125 -0.12375 8.75 -0.25 C9.65331055 -0.28641602 10.55662109 -0.32283203 11.48730469 -0.36035156 C17.38190403 -0.44203801 17.38190403 -0.44203801 20.55078125 1.82421875 C22.50387244 4.75648773 22.51437922 6.54631096 22 10 C20.5 11.875 20.5 11.875 19 13 C20.2375 13.99 20.2375 13.99 21.5 15 C24.40894758 18.49073709 24.40894758 18.49073709 24.5625 22.0625 C24 26 24 26 22.125 28.4375 C19.12728591 30.64170153 17.52862097 31.12344099 13.8671875 31.09765625 C13.14128418 31.09515869 12.41538086 31.09266113 11.66748047 31.09008789 C10.74596191 31.08098389 9.82444336 31.07187988 8.875 31.0625 C5.94625 31.041875 3.0175 31.02125 0 31 C0 20.77 0 10.54 0 0 Z " fill="#F7F7F7" transform="translate(205,249)"/>
<path d="M0 0 C2.660625 -0.0825 5.32125 -0.165 8.0625 -0.25 C8.8862915 -0.28641602 9.71008301 -0.32283203 10.55883789 -0.36035156 C16.19606628 -0.44405607 19.36331456 0.78270806 24 4 C26.96902714 7.44790249 27.48661782 10.46795563 27.28125 15.01171875 C26.6005066 19.82419641 24.79666423 22.38590465 21 25.3125 C16.30924345 27.95105056 12.55246977 28.12561871 7.3125 28.0625 C3.6928125 28.0315625 3.6928125 28.0315625 0 28 C0 18.76 0 9.52 0 0 Z " fill="#2689C4" transform="translate(360,253)"/>
<path d="M0 0 C2.31 0 4.62 0 7 0 C9.31 4.29 11.62 8.58 14 13 C16.20132619 10.06489842 17.95504171 7.4339774 19.6875 4.25 C20.12449219 3.45078125 20.56148438 2.6515625 21.01171875 1.828125 C21.33785156 1.22484375 21.66398437 0.6215625 22 0 C24.31 0 26.62 0 29 0 C29 9.24 29 18.48 29 28 C27.02 28 25.04 28 23 28 C22.67 22.72 22.34 17.44 22 12 C20.02 15.63 18.04 19.26 16 23 C12 22 12 22 10.515625 19.93359375 C9.34375 17.62239583 8.171875 15.31119792 7 13 C6.67 17.95 6.34 22.9 6 28 C4.02 28 2.04 28 0 28 C0 18.76 0 9.52 0 0 Z " fill="#25729E" transform="translate(305,253)"/>
<path d="M0 0 C3.64331077 1.61924923 6.20425519 3.40851039 8 7 C8.78534117 12.6372435 8.27478985 17.20477201 5 22 C0.63038649 24.74878073 -3.99796207 24.80939125 -9 24 C-12.34625024 21.47323961 -13.67977847 19.96066458 -15 16 C-15.5074473 12.19414525 -15.86096143 8.55165811 -13.953125 5.11328125 C-9.80328015 0.0724403 -6.34594129 -0.68340906 0 0 Z " fill="#F6F6F6" transform="translate(269,256)"/>
<path d="M0 0 C3.64331077 1.61924923 6.20425519 3.40851039 8 7 C8.78534117 12.6372435 8.27478985 17.20477201 5 22 C0.63038649 24.74878073 -3.99796207 24.80939125 -9 24 C-12.34625024 21.47323961 -13.67977847 19.96066458 -15 16 C-15.5074473 12.19414525 -15.86096143 8.55165811 -13.953125 5.11328125 C-9.80328015 0.0724403 -6.34594129 -0.68340906 0 0 Z " fill="#F6F6F6" transform="translate(245,256)"/>
<path d="M0 0 C3.07469523 1.70251719 5.40613254 3.81226508 7 7 C7.12195015 11.99995631 7.0905561 15.85351795 3.5625 19.5625 C-0.68309334 21.94417431 -4.12048911 22.82381353 -9 22 C-12.52787301 20.04342803 -14.70285021 17.89144937 -16 14 C-16.66611433 8.11599006 -16.66611433 8.11599006 -14.953125 5.24609375 C-10.54642575 -0.13267151 -6.73100962 -1.03901491 0 0 Z " fill="#2B89C5" transform="translate(405,259)"/>
<path d="M0 0 C1.98 0 3.96 0 6 0 C6.33 5.61 6.66 11.22 7 17 C7.86625 15.68 8.7325 14.36 9.625 13 C11.265625 10.78125 11.265625 10.78125 13 9 C16.375 8.5 16.375 8.5 19 9 C17.94670765 12.07210269 16.9428383 14.06696084 14.8125 16.5625 C12.7586734 18.75113931 12.7586734 18.75113931 13.1953125 20.89453125 C14.13966954 23.36544604 15.40695484 25.06633155 17.0625 27.125 C20 30.78823529 20 30.78823529 20 33 C17.4375 33.5625 17.4375 33.5625 14 33 C11.30799734 30.24351824 9.14272323 27.1950666 7 24 C6.67 26.97 6.34 29.94 6 33 C4.02 33 2.04 33 0 33 C0 22.11 0 11.22 0 0 Z " fill="#F5F5F5" transform="translate(279,247)"/>
<path d="M0 0 C1.98 0 3.96 0 6 0 C7.65 3.96 9.3 7.92 11 12 C12.65 8.04 14.3 4.08 16 0 C17.98 0 19.96 0 22 0 C20.39258377 6.36843002 18.12931783 12.40435201 15.5625 18.4375 C15.27431396 19.13552734 14.98612793 19.83355469 14.68920898 20.55273438 C13.04391664 24.33391533 11.70622454 27.02433722 8 29 C5.25 29.1875 5.25 29.1875 3 29 C1.9375 27.125 1.9375 27.125 1 25 C1.33 24.34 1.66 23.68 2 23 C3.65 23 5.3 23 7 23 C6.39265651 17.01113192 4.5859846 12.31265721 2.08398438 6.81054688 C0 2.16321126 0 2.16321126 0 0 Z " fill="#2592D3" transform="translate(336,259)"/>
<path d="M0 0 C2.5 1.5 2.5 1.5 4 3 C3.34 4.32 2.68 5.64 2 7 C-1.3 6.67 -4.6 6.34 -8 6 C-8.29562367 11.32170494 -8.29562367 11.32170494 -6 16 C-1.545 15.505 -1.545 15.505 3 15 C3.33 16.32 3.66 17.64 4 19 C2.51746567 21.18165586 1.52297275 21.88046337 -1.05078125 22.46875 C-5.30102391 22.52747529 -8.12968954 22.38326861 -11.5 19.625 C-15.07542109 15.87080786 -15.53422916 13.39848121 -15.46875 8.33203125 C-14.74623595 4.73752386 -12.97210915 3.14735658 -10.07421875 1.03125 C-6.43637263 -0.77739666 -4.0209104 -0.59324908 0 0 Z " fill="#2789C5" transform="translate(429,259)"/>
<path d="M0 0 C8.83928571 -0.66964286 8.83928571 -0.66964286 12.5625 2.0625 C15 5 15 5 15.6875 8.5 C15 12 15 12 13.125 14.9375 C8.58644572 17.93294582 5.37188068 17.35812538 0 17 C0 11.39 0 5.78 0 0 Z " fill="#030608" transform="translate(366,258)"/>
<path d="M0 0 C0.78246094 -0.01417969 1.56492187 -0.02835937 2.37109375 -0.04296875 C4.5625 0.1875 4.5625 0.1875 7.5625 2.1875 C7.5625 3.5075 7.5625 4.8275 7.5625 6.1875 C6.9025 6.1875 6.2425 6.1875 5.5625 6.1875 C5.5625 5.5275 5.5625 4.8675 5.5625 4.1875 C4.08215236 4.66300561 2.60324979 5.14301216 1.125 5.625 C-0.11056641 6.02525391 -0.11056641 6.02525391 -1.37109375 6.43359375 C-3.39969588 7.00905494 -3.39969588 7.00905494 -4.4375 8.1875 C-4.15019945 10.52694736 -3.81813221 12.8614143 -3.4375 15.1875 C-1.1275 15.8475 1.1825 16.5075 3.5625 17.1875 C3.5625 18.1775 3.5625 19.1675 3.5625 20.1875 C-0.03014452 21.38504817 -2.66467474 21.51844958 -6.4375 21.1875 C-9.34467073 18.96886971 -10.27731643 17.66805071 -11.4375 14.1875 C-12.10361433 8.30349006 -12.10361433 8.30349006 -10.390625 5.43359375 C-7.06782657 1.37782508 -5.12273622 0.04205859 0 0 Z " fill="#258BC9" transform="translate(400.4375,258.8125)"/>
<path d="M0 0 C1.98 0 3.96 0 6 0 C8.03435531 3.72965139 9 5.66905042 9 10 C7.35 10.33 5.7 10.66 4 11 C4 16.28 4 21.56 4 27 C2.68 27 1.36 27 0 27 C0 18.09 0 9.18 0 0 Z " fill="#2A92D0" transform="translate(306,253)"/>
<path d="M0 0 C1.8125 1 1.8125 1 3 3 C3.59473663 7.46052469 3.53637054 10.19544419 1 14 C-2.625 14.1875 -2.625 14.1875 -6 14 C-8.3297964 10.35969312 -8.3862557 7.24881273 -8 3 C-5.95177941 -0.34183359 -3.7548828 -0.56323242 0 0 Z " fill="#080808" transform="translate(268,261)"/>
<path d="M0 0 C1.8125 1 1.8125 1 3 3 C3.59473663 7.46052469 3.53637054 10.19544419 1 14 C-2.625 14.1875 -2.625 14.1875 -6 14 C-8.3297964 10.35969312 -8.3862557 7.24881273 -8 3 C-5.95177941 -0.34183359 -3.7548828 -0.56323242 0 0 Z " fill="#080808" transform="translate(244,261)"/>
<path d="M0 0 C0 5.28 0 10.56 0 16 C2.64 16 5.28 16 8 16 C8.33 17.32 8.66 18.64 9 20 C4.38 20 -0.24 20 -5 20 C-5.08069658 17.04112541 -5.14034665 14.0844341 -5.1875 11.125 C-5.21263672 10.28324219 -5.23777344 9.44148438 -5.26367188 8.57421875 C-5.27333984 7.76855469 -5.28300781 6.96289062 -5.29296875 6.1328125 C-5.3086792 5.38918457 -5.32438965 4.64555664 -5.34057617 3.87939453 C-5.22818604 3.25919434 -5.1157959 2.63899414 -5 2 C-2 0 -2 0 0 0 Z " fill="#2796DA" transform="translate(366,260)"/>
<path d="M0 0 C2.9375 0.8125 2.9375 0.8125 4.9375 2.8125 C4.75 6.3125 4.75 6.3125 3.9375 9.8125 C0.9375 11.8125 0.9375 11.8125 -1.625 11.625 C-4.0625 10.8125 -4.0625 10.8125 -6.0625 7.8125 C-6.41938862 4.95739108 -6.42820003 3.42200005 -4.9375 0.9375 C-3.0625 -0.1875 -3.0625 -0.1875 0 0 Z " fill="#030709" transform="translate(401.0625,264.1875)"/>
<path d="M0 0 C1.98 0 3.96 0 6 0 C3.92957946 7.60837466 1.14169523 14.7728592 -2 22 C-3.04449911 18.86650268 -2.93423645 18.01031744 -2 15 C-3.32 14.67 -4.64 14.34 -6 14 C-5.71382813 13.44828125 -5.42765625 12.8965625 -5.1328125 12.328125 C-3.92260849 9.84094711 -2.8904694 7.32252247 -1.875 4.75 C-1.52179688 3.85796875 -1.16859375 2.9659375 -0.8046875 2.046875 C-0.53914063 1.37140625 -0.27359375 0.6959375 0 0 Z " fill="#2483B9" transform="translate(352,259)"/>
<path d="M0 0 C1.62463842 -0.05395478 3.24978541 -0.09277195 4.875 -0.125 C5.77992188 -0.14820313 6.68484375 -0.17140625 7.6171875 -0.1953125 C10 0 10 0 12 2 C12.25 4.5 12.25 4.5 12 7 C10 9 10 9 7.6171875 9.1953125 C6.71226562 9.17210937 5.80734375 9.14890625 4.875 9.125 C3.50988281 9.09792969 3.50988281 9.09792969 2.1171875 9.0703125 C1.41851562 9.04710937 0.71984375 9.02390625 0 9 C0 6.03 0 3.06 0 0 Z " fill="#040404" transform="translate(211,266)"/>
<path d="M0 0 C5.61 0 11.22 0 17 0 C17 0.33 17 0.66 17 1 C12.38 1 7.76 1 3 1 C3 1.66 3 2.32 3 3 C6.63 3.33 10.26 3.66 14 4 C14 4.33 14 4.66 14 5 C11.36 5 8.72 5 6 5 C6 5.66 6 6.32 6 7 C4.02 7.99 4.02 7.99 2 9 C1.67 14.94 1.34 20.88 1 27 C5.62 27 10.24 27 15 27 C15 27.33 15 27.66 15 28 C10.05 28 5.1 28 0 28 C0 18.76 0 9.52 0 0 Z " fill="#2779A7" transform="translate(360,253)"/>
<path d="M0 0 C1.98 0 3.96 0 6 0 C6.05395478 1.62463842 6.09277195 3.24978541 6.125 4.875 C6.14820313 5.77992188 6.17140625 6.68484375 6.1953125 7.6171875 C6 10 6 10 4 12 C4 11.01 4 10.02 4 9 C2.68 8.67 1.36 8.34 0 8 C0 8.99 0 9.98 0 11 C-1.65 11.66 -3.3 12.32 -5 13 C-4.48474397 7.71862571 -2.74522883 4.42778844 0 0 Z " fill="#2C96D5" transform="translate(327,253)"/>
<path d="M0 0 C0.33 0 0.66 0 1 0 C2.41956648 15.80706454 2.41956648 15.80706454 0.9375 20.6875 C-0.16174744 24.5715076 0.39967061 25.44371247 2 29 C2.18184758 31.69235442 2.09162353 34.29710601 2 37 C-1.62677131 30.52362266 -2.32358641 24.32915811 -2.25 17.0625 C-2.26160156 15.92264648 -2.26160156 15.92264648 -2.2734375 14.75976562 C-2.25558426 9.53323045 -1.44036761 5.0241394 0 0 Z " fill="#2E88BC" transform="translate(72,235)"/>
<path d="M0 0 C6.0546875 -0.1953125 6.0546875 -0.1953125 8 0 C8.66 0.66 9.32 1.32 10 2 C9.44444444 6.55555556 9.44444444 6.55555556 8 8 C5.32941149 8.14115161 2.67567762 8.04247107 0 8 C0 5.36 0 2.72 0 0 Z " fill="#090909" transform="translate(211,253)"/>
<path d="M0 0 C1.98 0 3.96 0 6 0 C6.67119549 1.4562545 7.33681807 2.91507867 8 4.375 C8.556875 5.59316406 8.556875 5.59316406 9.125 6.8359375 C10 9 10 9 10 11 C8.68 11 7.36 11 6 11 C5.67 11.99 5.34 12.98 5 14 C4.16235732 12.04350603 3.33000941 10.08474444 2.5 8.125 C2.0359375 7.03445313 1.571875 5.94390625 1.09375 4.8203125 C0 2 0 2 0 0 Z " fill="#2486BC" transform="translate(336,259)"/>
<path d="M0 0 C1.65 1.32 3.3 2.64 5 4 C0.69230769 8.92307692 0.69230769 8.92307692 -2.8125 9.3125 C-3.534375 9.209375 -4.25625 9.10625 -5 9 C-6.0625 7.125 -6.0625 7.125 -7 5 C-6.67 4.34 -6.34 3.68 -6 3 C-4.35 3 -2.7 3 -1 3 C-0.67 2.01 -0.34 1.02 0 0 Z " fill="#2787BD" transform="translate(344,279)"/>
<path d="M0 0 C0 0.99 0 1.98 0 3 C0.66 3 1.32 3 2 3 C2 3.66 2 4.32 2 5 C1.360625 5.28875 0.72125 5.5775 0.0625 5.875 C-2.15206079 6.82823451 -2.15206079 6.82823451 -3 9 C-6.11227195 9 -8.94152152 8.54372951 -12 8 C-4.57142857 0 -4.57142857 0 0 0 Z " fill="#258DC3" transform="translate(102,199)"/>
<path d="M0 0 C1.32 0 2.64 0 4 0 C4 4.62 4 9.24 4 14 C2.68 14 1.36 14 0 14 C0 9.38 0 4.76 0 0 Z " fill="#2B97D7" transform="translate(329,266)"/>
<path d="M0 0 C0.33 0.66 0.66 1.32 1 2 C2.670625 1.9690625 2.670625 1.9690625 4.375 1.9375 C8 2 8 2 10 3 C10.33 2.01 10.66 1.02 11 0 C11.99 0.66 12.98 1.32 14 2 C11.36 3.98 8.72 5.96 6 8 C2.43688534 6.21844267 0.64354525 4.83236991 -2 2 C-1.34 1.34 -0.68 0.68 0 0 Z " fill="#2B92CA" transform="translate(126,226)"/>
<path d="M0 0 C0.94875 0.350625 1.8975 0.70125 2.875 1.0625 C2 5.8125 2 5.8125 0.875 8.0625 C-1 7.8125 -1 7.8125 -3.125 7.0625 C-4.84601535 4.48097698 -5.125 3.21331975 -5.125 0.0625 C-3.125 -0.9375 -3.125 -0.9375 0 0 Z " fill="#2389C7" transform="translate(320.125,267.9375)"/>
<path d="M0 0 C2 2 2 2 4 5 C5.32 5 6.64 5 8 5 C8.66 3.68 9.32 2.36 10 1 C10.33 3.31 10.66 5.62 11 8 C5.08507728 7.54775239 -0.35199888 6.8417395 -6 5 C-6 4.67 -6 4.34 -6 4 C-4.35 4 -2.7 4 -1 4 C-0.67 2.68 -0.34 1.36 0 0 Z " fill="#2377A9" transform="translate(116,305)"/>
<path d="M0 0 C0.98186716 1.93800855 1.94368343 3.8729541 2.82421875 5.859375 C5.35689538 11.40605143 8.82424276 15.58964965 13 20 C12.34 20.33 11.68 20.66 11 21 C10.01 20.67 9.02 20.34 8 20 C8 19.01 8 18.02 8 17 C7.01 16.67 6.02 16.34 5 16 C4.67 14.35 4.34 12.7 4 11 C3.01 11 2.02 11 1 11 C-0.20272819 8.59454362 -0.10071472 7.05003047 -0.0625 4.375 C-0.05347656 3.55773437 -0.04445313 2.74046875 -0.03515625 1.8984375 C-0.02355469 1.27195313 -0.01195313 0.64546875 0 0 Z " fill="#4396C0" transform="translate(91,250)"/>
<path d="M0 0 C0.33 0.99 0.66 1.98 1 3 C0.34 3.66 -0.32 4.32 -1 5 C-1.86302185 10.60403796 -1.11940996 15.20090775 2 20 C2.66 20.33 3.32 20.66 4 21 C3.67 21.99 3.34 22.98 3 24 C2.0158875 22.73299277 1.03788503 21.4612381 0.0625 20.1875 C-0.48277344 19.47980469 -1.02804688 18.77210938 -1.58984375 18.04296875 C-4.29489413 14.12401764 -4.39401401 10.64936529 -4 6 C-2 2.5625 -2 2.5625 0 0 Z " fill="#4093C0" transform="translate(104,237)"/>
<path d="M0 0 C0.99 0.66 1.98 1.32 3 2 C1.40112446 3.48488441 -0.20428905 4.96273145 -1.8125 6.4375 C-3.15248047 7.67306641 -3.15248047 7.67306641 -4.51953125 8.93359375 C-7 11 -7 11 -10 12 C-9.67 10.68 -9.34 9.36 -9 8 C-8.01 8 -7.02 8 -6 8 C-5.855625 7.38125 -5.71125 6.7625 -5.5625 6.125 C-5 4 -5 4 -4 2 C-1.9375 0.875 -1.9375 0.875 0 0 Z " fill="#1F80B9" transform="translate(173,292)"/>
<path d="M0 0 C5.62511657 3.6630401 5.62511657 3.6630401 6.58886719 7.10009766 C6.81329991 9.51858869 6.88266762 11.8837814 6.875 14.3125 C6.895625 15.14845703 6.91625 15.98441406 6.9375 16.84570312 C6.98438005 18.8967055 6.99573929 20.94846635 7 23 C6.34 23 5.68 23 5 23 C4.67 17.72 4.34 12.44 4 7 C2.35 6.67 0.7 6.34 -1 6 C-0.67 4.02 -0.34 2.04 0 0 Z " fill="#54A4D1" transform="translate(121,286)"/>
<path d="M0 0 C4.95 0 9.9 0 15 0 C15 0.66 15 1.32 15 2 C14.34 2 13.68 2 13 2 C13 2.66 13 3.32 13 4 C8.71 3.34 4.42 2.68 0 2 C0 1.34 0 0.68 0 0 Z " fill="#2D97D7" transform="translate(363,254)"/>
<path d="M0 0 C0.33 0 0.66 0 1 0 C1.04898438 1.09699219 1.09796875 2.19398438 1.1484375 3.32421875 C1.22350591 4.77866925 1.29905197 6.23309516 1.375 7.6875 C1.4059375 8.40873047 1.436875 9.12996094 1.46875 9.87304688 C1.69638266 14.027343 2.33964415 17.14368963 4 21 C4.23608151 23.70549407 4.09234983 26.27567998 4 29 C0.25042691 22.30433377 -0.28212191 16.06204986 -0.125 8.5625 C-0.11597656 7.73556641 -0.10695313 6.90863281 -0.09765625 6.05664062 C-0.07431512 4.03763292 -0.03845288 2.01877644 0 0 Z " fill="#2C7098" transform="translate(70,243)"/>
<path d="M0 0 C2.9375 1.3125 2.9375 1.3125 6 3 C6.33 3.99 6.66 4.98 7 6 C6.34 6 5.68 6 5 6 C4.67 5.67 4.34 5.34 4 5 C3.01 5.99 2.02 6.98 1 8 C-0.32 6.68 -1.64 5.36 -3 4 C-2.67 3.34 -2.34 2.68 -2 2 C-1.34 2 -0.68 2 0 2 C0 1.34 0 0.68 0 0 Z " fill="#2987BF" transform="translate(378,254)"/>
<path d="M0 0 C1.32 0 2.64 0 4 0 C3.71125 0.78375 3.4225 1.5675 3.125 2.375 C1.73239716 6.8622758 0.85728019 11.385279 0 16 C-0.33 16 -0.66 16 -1 16 C-1 14.02 -1 12.04 -1 10 C-1.66 10 -2.32 10 -3 10 C-2.36982402 7.05917877 -1.33984264 4.67968527 0 2 C0 1.34 0 0.68 0 0 Z " fill="#3093C2" transform="translate(91,234)"/>
<path d="M0 0 C-0.57344937 2.86724686 -0.8614515 3.8614515 -3 6 C-5.1640625 6.1953125 -5.1640625 6.1953125 -7.625 6.125 C-8.44226563 6.10695313 -9.25953125 6.08890625 -10.1015625 6.0703125 C-10.72804688 6.04710937 -11.35453125 6.02390625 -12 6 C-12 5.67 -12 5.34 -12 5 C-9.36 5 -6.72 5 -4 5 C-4.66 3.35 -5.32 1.7 -6 0 C-3.50907189 -1.24546405 -2.58919267 -0.7767578 0 0 Z " fill="#247AAA" transform="translate(433,275)"/>
<path d="M0 0 C0.78375 0.04125 1.5675 0.0825 2.375 0.125 C2.705 1.445 3.035 2.765 3.375 4.125 C-1.245 4.125 -5.865 4.125 -10.625 4.125 C-10.625 3.795 -10.625 3.465 -10.625 3.125 C-9.201875 2.939375 -9.201875 2.939375 -7.75 2.75 C-4.23540906 2.04708181 -3.47083272 0.16527775 0 0 Z " fill="#2B92D3" transform="translate(371.625,275.875)"/>
<path d="M0 0 C7.38461538 -0.36923077 7.38461538 -0.36923077 10.5 1.5 C10.995 1.995 11.49 2.49 12 3 C11.34 4.32 10.68 5.64 10 7 C8.68 6.34 7.36 5.68 6 5 C7.32 4.34 8.64 3.68 10 3 C6.7 2.34 3.4 1.68 0 1 C0 0.67 0 0.34 0 0 Z " fill="#2A83B9" transform="translate(421,259)"/>
<path d="M0 0 C0.66 0.66 1.32 1.32 2 2 C1.625 4.125 1.625 4.125 1 6 C0.278125 6.12375 -0.44375 6.2475 -1.1875 6.375 C-3.95721894 6.9904931 -6.3970354 7.88444374 -9 9 C-6 6 -3 3 0 0 Z " fill="#3795CD" transform="translate(156,272)"/>
<path d="M0 0 C1.65 1.65 3.3 3.3 5 5 C4.01 5.66 3.02 6.32 2 7 C-0.31 5.35 -2.62 3.7 -5 2 C-3.68 1.67 -2.36 1.34 -1 1 C-0.67 0.67 -0.34 0.34 0 0 Z " fill="#2382B6" transform="translate(95,296)"/>
<path d="M0 0 C1.38111722 2.2747813 2.05694702 3.50171361 1.75 6.1875 C1 8 1 8 -1 9 C-3.6723621 9.13415472 -6.32250488 9.04318541 -9 9 C-9 8.67 -9 8.34 -9 8 C-6.36 7.67 -3.72 7.34 -1 7 C-1 6.01 -1 5.02 -1 4 C-1.66 3.67 -2.32 3.34 -3 3 C-2.01 2.01 -1.02 1.02 0 0 Z " fill="#237AAC" transform="translate(405,272)"/>
<path d="M0 0 C3 0 3 0 6 1 C5.01 2.98 4.02 4.96 3 7 C2.34 6.34 1.68 5.68 1 5 C-1.06874034 4.3574765 -1.06874034 4.3574765 -3 4 C-2 2 -2 2 0 0 Z " fill="#217DB2" transform="translate(321,264)"/>
<path d="M0 0 C4.29 0.33 8.58 0.66 13 1 C13 1.33 13 1.66 13 2 C12.41992188 2.04898438 11.83984375 2.09796875 11.2421875 2.1484375 C6.56076908 2.59649405 2.42514541 3.298021 -2 5 C-2 4.01 -2 3.02 -2 2 C-1.34 2 -0.68 2 0 2 C0 1.34 0 0.68 0 0 Z " fill="#3995C8" transform="translate(102,224)"/>
<path d="M0 0 C0.33 0 0.66 0 1 0 C1 2.31 1 4.62 1 7 C3.31 7 5.62 7 8 7 C4.5647952 9.29013653 3.014669 9.17842973 -1 9 C-1.33 7.35 -1.66 5.7 -2 4 C-1.34 4 -0.68 4 0 4 C0 2.68 0 1.36 0 0 Z " fill="#276A8E" transform="translate(136,304)"/>
<path d="M0 0 C1.98 0 3.96 0 6 0 C6.33 1.32 6.66 2.64 7 4 C5.824375 4.2165625 5.824375 4.2165625 4.625 4.4375 C2.03578982 4.87798925 2.03578982 4.87798925 0 6 C0 4.02 0 2.04 0 0 Z " fill="#298DC6" transform="translate(306,253)"/>
<path d="M0 0 C0.99 0 1.98 0 3 0 C1.6062718 4.43458973 -0.60582235 6.87378374 -4 10 C-4 9.01 -4 8.02 -4 7 C-3.34 7 -2.68 7 -2 7 C-1.855625 6.21625 -1.71125 5.4325 -1.5625 4.625 C-1 2 -1 2 0 0 Z " fill="#2181B3" transform="translate(180,283)"/>
<path d="M0 0 C1.125 3.75 1.125 3.75 0 6 C0.66 6.33 1.32 6.66 2 7 C1.34 7 0.68 7 0 7 C0 8.98 0 10.96 0 13 C-2.45811625 9.31282562 -2.31118164 7.35654296 -2 3 C-1.34 2.01 -0.68 1.02 0 0 Z " fill="#2178A9" transform="translate(391,263)"/>
<path d="M0 0 C1.98 0 3.96 0 6 0 C6.33 1.32 6.66 2.64 7 4 C6.01 4 5.02 4 4 4 C3.01 5.485 3.01 5.485 2 7 C1.34 4.69 0.68 2.38 0 0 Z " fill="#287AB3" transform="translate(336,259)"/>
<path d="M0 0 C0.33 0.66 0.66 1.32 1 2 C0.70351562 2.58265625 0.40703125 3.1653125 0.1015625 3.765625 C-1.24129541 6.48943609 -1.40932624 8.73056733 -1.625 11.75 C-1.69976562 12.73484375 -1.77453125 13.7196875 -1.8515625 14.734375 C-1.90054688 15.48203125 -1.94953125 16.2296875 -2 17 C-2.33 17 -2.66 17 -3 17 C-3.08097324 14.72975032 -3.13917704 12.45867925 -3.1875 10.1875 C-3.22230469 8.92292969 -3.25710937 7.65835937 -3.29296875 6.35546875 C-3 3 -3 3 -1.48828125 1.05078125 C-0.75158203 0.53064453 -0.75158203 0.53064453 0 0 Z " fill="#318FC6" transform="translate(139,287)"/>
<path d="M0 0 C1.98 0 3.96 0 6 0 C6 0.99 6 1.98 6 3 C3.36 3.33 0.72 3.66 -2 4 C-1.34 2.68 -0.68 1.36 0 0 Z " fill="#2990D3" transform="translate(398,276)"/>
<path d="M0 0 C1.485 0.99 1.485 0.99 3 2 C3.1875 5.625 3.1875 5.625 3 9 C2.01 9 1.02 9 0 9 C0 6.03 0 3.06 0 0 Z " fill="#2594DC" transform="translate(306,270)"/>
<path d="M0 0 C-0.33 0.99 -0.66 1.98 -1 3 C-3.64 3 -6.28 3 -9 3 C-5.83583464 -0.30799106 -4.50236011 -1.35070803 0 0 Z " fill="#2593D2" transform="translate(430,277)"/>
<path d="M0 0 C0.33 0 0.66 0 1 0 C0.8864371 1.64666203 0.75882619 3.29236082 0.625 4.9375 C0.55539062 5.85402344 0.48578125 6.77054687 0.4140625 7.71484375 C0.27742188 8.46894531 0.14078125 9.22304688 0 10 C-0.99 10.495 -0.99 10.495 -2 11 C-2.66 9.35 -3.32 7.7 -4 6 C-3.34 5.34 -2.68 4.68 -2 4 C-1.30251417 2.68252676 -0.63040043 1.35085807 0 0 Z " fill="#277BAE" transform="translate(411,266)"/>
<path d="M0 0 C0.66 0.66 1.32 1.32 2 2 C1.8125 4.5 1.8125 4.5 1 7 C0.01 7.66 -0.98 8.32 -2 9 C-1.51421457 5.87709365 -1.0013988 3.00419641 0 0 Z " fill="#257EAD" transform="translate(75,226)"/>
<path d="M0 0 C2.375 1.75 2.375 1.75 3.375 4.75 C-0.40045388 3.65931332 -3.09543472 2.8416909 -5.625 -0.25 C-2.625 -1.25 -2.625 -1.25 0 0 Z " fill="#2674A2" transform="translate(103.625,303.25)"/>
<path d="M0 0 C1.9451 2.91765 2.45276317 4.62537285 3 8 C-1.875 3.25 -1.875 3.25 -3 1 C-2.01 0.67 -1.02 0.34 0 0 Z " fill="#207FAC" transform="translate(85,287)"/>
<path d="M0 0 C0.6875 1.8125 0.6875 1.8125 1 4 C-0.4375 5.75 -0.4375 5.75 -2 7 C-2.99 6.67 -3.98 6.34 -5 6 C-3.35 4.02 -1.7 2.04 0 0 Z " fill="#2A83B4" transform="translate(84,213)"/>
<path d="M0 0 C0 0.99 0 1.98 0 3 C0.66 3 1.32 3 2 3 C2 3.66 2 4.32 2 5 C0.68 5 -0.64 5 -2 5 C-2 4.34 -2 3.68 -2 3 C-2.99 2.67 -3.98 2.34 -5 2 C-2 0 -2 0 0 0 Z " fill="#2888BA" transform="translate(102,199)"/>
<path d="M0 0 C0.94875 0.350625 1.8975 0.70125 2.875 1.0625 C2.545 2.0525 2.215 3.0425 1.875 4.0625 C1.875 3.4025 1.875 2.7425 1.875 2.0625 C1.09125 2.248125 0.3075 2.43375 -0.5 2.625 C-3.125 3.0625 -3.125 3.0625 -5.125 2.0625 C-5.125 1.4025 -5.125 0.7425 -5.125 0.0625 C-3.125 -0.9375 -3.125 -0.9375 0 0 Z " fill="#2392CF" transform="translate(320.125,267.9375)"/>
<path d="M0 0 C2.31 1.98 4.62 3.96 7 6 C6.01 6.495 6.01 6.495 5 7 C4.01 6.67 3.02 6.34 2 6 C2 5.01 2 4.02 2 3 C1.01 2.67 0.02 2.34 -1 2 C-0.67 1.34 -0.34 0.68 0 0 Z " fill="#3391BE" transform="translate(97,264)"/>
<path d="M0 0 C0.99 0.33 1.98 0.66 3 1 C3 1.66 3 2.32 3 3 C4.65 3 6.3 3 8 3 C7.401875 3.28875 6.80375 3.5775 6.1875 3.875 C3.80672208 5.04742026 3.80672208 5.04742026 1 7 C1 6.01 1 5.02 1 4 C0.6937566 2.66018514 0.36548445 1.32488113 0 0 Z " fill="#2684BA" transform="translate(394,260)"/>
<path d="M0 0 C0.6875 1.6875 0.6875 1.6875 1 4 C-0.3125 6.75 -0.3125 6.75 -2 9 C-2.66 9 -3.32 9 -4 9 C-2.94124926 5.59687262 -1.99097846 2.98646769 0 0 Z " fill="#2578AA" transform="translate(326,255)"/>
<path d="M0 0 C0.33 0 0.66 0 1 0 C1 4.29 1 8.58 1 13 C0.01 12.67 -0.98 12.34 -2 12 C-1.67 11.34 -1.34 10.68 -1 10 C-0.77377919 8.29636178 -0.59111527 6.58671299 -0.4375 4.875 C-0.35371094 3.96492188 -0.26992188 3.05484375 -0.18359375 2.1171875 C-0.12300781 1.41851562 -0.06242187 0.71984375 0 0 Z " fill="#3292CF" transform="translate(365,261)"/>
<path d="M0 0 C0.66 0.33 1.32 0.66 2 1 C2 2.98 2 4.96 2 7 C1.01 6.67 0.02 6.34 -1 6 C-1.042721 4.33388095 -1.04063832 2.66617115 -1 1 C-0.67 0.67 -0.34 0.34 0 0 Z " fill="#2B92D6" transform="translate(340,262)"/>
</svg>
